<svg xmlns="http://www.w3.org/2000/svg" viewBox="757.52 314.52 1011.96 517.98"><defs><linearGradient id="g" gradientUnits="userSpaceOnUse" x1="952.5" y1="361.2" x2="1766.1" y2="669.8">
<stop offset="0" stop-color="#f6efe8"/><stop offset="1" stop-color="#a52a23"/></linearGradient></defs><g><path fill-rule="evenodd" fill="url(#g)" d="M 1274.74,324.71 L 1309.74,324.52 L 1318.46,326.48 L 1327.17,326.52 L 1345.52,330.48 L 1355.15,331.71 L 1361.89,334.29 L 1370.54,335.71 L 1377.26,338.29 L 1386.86,340.71 L 1401.22,345.71 L 1409.82,350.29 L 1414.60,351.71 L 1419.37,354.29 L 1424.14,355.71 L 1446.99,367.70 L 1451.74,371.30 L 1460.29,376.30 L 1464.09,377.72 L 1474.52,385.30 L 1479.25,387.70 L 1482.65,391.00 L 1492.50,397.70 L 1503.45,407.00 L 1508.00,410.00 L 1512.89,415.00 L 1517.43,418.00 L 1524.20,425.00 L 1529.29,428.51 L 1540.58,440.49 L 1546.22,444.51 L 1582.31,483.00 L 1585.14,488.00 L 1597.27,501.00 L 1600.10,506.00 L 1608.96,515.59 L 1610.54,519.00 L 1614.55,523.59 L 1616.42,527.41 L 1622.01,533.59 L 1623.88,537.41 L 1627.60,541.59 L 1629.47,545.41 L 1633.19,549.59 L 1635.05,553.41 L 1638.77,557.59 L 1640.64,561.41 L 1644.63,566.00 L 1645.94,569.00 L 1652.07,578.00 L 1655.23,585.00 L 1659.22,589.59 L 1660.80,593.00 L 1663.22,596.00 L 1666.37,603.00 L 1668.78,606.00 L 1670.08,609.00 L 1676.20,618.00 L 1679.35,625.00 L 1685.47,634.00 L 1688.62,641.00 L 1691.02,644.00 L 1697.87,659.00 L 1700.28,662.00 L 1716.36,697.00 L 1718.76,700.00 L 1730.76,726.00 L 1732.98,733.00 L 1739.05,746.00 L 1740.36,751.00 L 1744.58,760.00 L 1745.88,765.00 L 1750.10,774.00 L 1751.41,779.00 L 1753.78,784.00 L 1755.09,789.00 L 1757.47,794.00 L 1759.48,801.00 L 1759.48,816.00 L 1757.65,820.00 L 1756.28,821.28 L 1754.44,821.50 L 1594.01,821.48 L 1585.60,819.29 L 1578.11,816.30 L 1572.49,813.30 L 1569.68,810.70 L 1566.87,809.30 L 1564.05,806.70 L 1561.24,805.30 L 1555.23,801.00 L 1538.70,783.41 L 1535.88,778.59 L 1532.77,775.00 L 1531.46,772.00 L 1529.01,769.00 L 1525.81,762.00 L 1523.36,759.00 L 1517.71,747.00 L 1516.38,742.00 L 1508.28,725.00 L 1506.94,720.00 L 1502.62,711.00 L 1501.28,706.00 L 1498.84,701.00 L 1497.50,696.00 L 1493.17,687.00 L 1491.83,682.00 L 1481.82,661.00 L 1480.47,656.00 L 1462.47,618.00 L 1459.06,613.00 L 1452.98,600.00 L 1449.56,595.00 L 1445.38,586.00 L 1441.95,581.00 L 1439.67,576.00 L 1432.43,565.00 L 1430.14,560.00 L 1424.81,553.00 L 1414.88,537.00 L 1406.00,525.41 L 1403.13,520.59 L 1396.43,513.41 L 1393.07,508.00 L 1370.54,484.51 L 1365.34,481.00 L 1360.36,476.00 L 1355.72,473.00 L 1352.66,470.00 L 1344.55,465.30 L 1337.80,459.70 L 1324.27,452.71 L 1319.43,451.29 L 1314.59,448.71 L 1308.77,446.71 L 1276.69,446.50 L 1274.74,446.71 L 1263.02,450.71 L 1253.24,455.70 L 1248.34,459.30 L 1243.44,461.70 L 1236.57,467.30 L 1226.34,474.00 L 1214.93,484.49 L 1211.97,486.51 L 1194.69,504.00 L 1190.70,510.00 L 1182.29,518.59 L 1179.31,523.41 L 1176.33,526.59 L 1173.35,531.41 L 1164.09,543.00 L 1161.40,547.41 L 1158.41,550.59 L 1152.12,560.00 L 1149.72,565.00 L 1142.12,576.00 L 1137.71,585.00 L 1128.07,600.00 L 1117.61,621.00 L 1114.99,625.00 L 1113.56,629.00 L 1110.96,633.00 L 1109.54,637.00 L 1104.90,645.00 L 1103.48,649.00 L 1092.77,670.00 L 1091.33,675.00 L 1080.58,696.00 L 1079.14,701.00 L 1074.48,710.00 L 1073.03,715.00 L 1068.36,724.00 L 1066.91,729.00 L 1064.27,734.00 L 1062.82,739.00 L 1054.64,755.00 L 1040.27,777.00 L 1036.87,780.59 L 1033.77,785.41 L 1015.58,803.00 L 1002.67,811.30 L 990.12,817.29 L 977.52,821.29 L 973.31,821.71 L 971.19,822.48 L 786.53,822.50 L 777.21,821.28 L 775.83,820.49 L 771.08,817.00 L 767.90,813.00 L 767.52,805.00 L 774.01,792.00 L 777.61,787.00 L 782.22,776.00 L 788.20,767.00 L 790.02,762.00 L 793.30,757.00 L 795.09,752.00 L 812.98,723.00 L 814.69,718.00 L 819.45,710.00 L 823.71,705.00 L 842.82,672.00 L 846.96,667.00 L 854.26,654.00 L 858.35,649.00 L 863.32,640.00 L 874.09,625.00 L 876.77,620.00 L 885.21,609.00 L 887.87,604.00 L 891.84,599.00 L 901.07,584.00 L 905.01,580.00 L 912.31,569.59 L 915.90,566.00 L 922.83,556.00 L 932.85,544.41 L 936.08,539.59 L 939.29,536.41 L 942.50,531.59 L 947.85,526.41 L 951.05,521.59 L 957.95,515.00 L 961.67,509.59 L 970.66,501.00 L 974.36,495.59 L 985.40,485.00 L 993.80,475.00 L 1017.23,452.51 L 1027.58,444.49 L 1039.96,432.51 L 1045.52,429.00 L 1052.89,422.00 L 1057.83,419.00 L 1065.17,412.00 L 1070.09,409.00 L 1073.33,406.00 L 1078.24,403.00 L 1090.02,393.70 L 1102.17,385.70 L 1107.22,383.30 L 1112.27,379.70 L 1121.34,375.30 L 1126.37,371.70 L 1143.42,363.30 L 1148.42,359.72 L 1153.42,358.29 L 1166.38,351.71 L 1171.36,350.29 L 1176.33,347.71 L 1193.19,342.29 L 1198.14,339.71 L 1229.70,331.71 L 1233.63,331.29 L 1240.50,329.52 L 1243.44,329.48 L 1246.38,328.52 L 1251.28,328.48 L 1260.09,326.52 L 1266.93,326.48 L 1274.74,324.71 Z"/></g></svg>